<svg width="134" height="36" viewBox="0 0 134 36" fill="none" xmlns="http://www.w3.org/2000/svg">
<rect width="36" height="36" rx="12" fill="#FF2424"/>
<path d="M23.0406 21.2531L20.8031 21.1031C20.6406 21.0938 20.4813 21.1375 20.35 21.2344C20.2188 21.3313 20.125 21.4656 20.0875 21.625L19.5375 23.8C19.0469 23.9313 18.5312 24 18 24C17.4688 24 16.9531 23.9313 16.4625 23.8L15.9125 21.625C15.8719 21.4688 15.7781 21.3313 15.65 21.2344C15.5219 21.1375 15.3594 21.0938 15.1969 21.1031L12.9594 21.2531C12.4094 20.4031 12.0688 19.4031 12.0094 18.3281L13.9062 17.1344C14.0437 17.0469 14.1437 16.9156 14.1937 16.7625C14.2438 16.6094 14.2375 16.4437 14.1781 16.2937L13.3438 14.2125C14 13.4125 14.8531 12.7812 15.8344 12.4031L17.5594 13.8406C17.6844 13.9438 17.8406 14 18 14C18.1594 14 18.3188 13.9438 18.4406 13.8406L20.1656 12.4031C21.1437 12.7812 22 13.4125 22.6531 14.2125L21.8188 16.2937C21.7594 16.4437 21.7531 16.6094 21.8031 16.7625C21.8531 16.9156 21.9563 17.0469 22.0906 17.1344L23.9875 18.3281C23.9281 19.4031 23.5875 20.4031 23.0375 21.2531H23.0406ZM18 26C22.4153 26 26 22.4153 26 18C26 13.5847 22.4153 10 18 10C13.5847 10 10 13.5847 10 18C10 22.4153 13.5847 26 18 26ZM18.4406 15.8219C18.1781 15.6312 17.8219 15.6312 17.5594 15.8219L16.0625 16.9062C15.8 17.0969 15.6906 17.4344 15.7906 17.7438L16.3625 19.5031C16.4625 19.8125 16.75 20.0219 17.075 20.0219H18.925C19.25 20.0219 19.5375 19.8125 19.6375 19.5031L20.2094 17.7438C20.3094 17.4344 20.2 17.0969 19.9375 16.9062L18.4406 15.8187V15.8219Z" fill="white"/>
<path d="M53.56 24L49.44 17.86V24H45V9.84H49.44V15.8L53.5 9.84H58.52L53.64 16.62L58.84 24H53.56ZM63.54 9.84V24H59.1V9.84H63.54ZM75.66 9.84V13.36H71.9V24H67.46V13.36H63.74V9.84H75.66ZM80.3 20.64H84.58V24H75.86V9.84H80.3V20.64ZM94.06 21.86H89.34L88.64 24H83.98L89.16 9.84H94.28L99.44 24H94.76L94.06 21.86ZM92.98 18.52L91.7 14.58L90.42 18.52H92.98ZM108.92 16.74C109.773 16.94 110.437 17.35 110.91 17.97C111.383 18.59 111.62 19.3067 111.62 20.12C111.62 21.36 111.21 22.3167 110.39 22.99C109.57 23.6633 108.393 24 106.86 24H99.44V9.84H106.66C108.1 9.84 109.233 10.1533 110.06 10.78C110.887 11.4067 111.3 12.32 111.3 13.52C111.3 14.3467 111.083 15.0433 110.65 15.61C110.217 16.1767 109.64 16.5533 108.92 16.74ZM103.88 15.36H105.6C106 15.36 106.297 15.28 106.49 15.12C106.683 14.96 106.78 14.7133 106.78 14.38C106.78 14.0333 106.683 13.7767 106.49 13.61C106.297 13.4433 106 13.36 105.6 13.36H103.88V15.36ZM105.9 20.44C106.3 20.44 106.597 20.3633 106.79 20.21C106.983 20.0567 107.08 19.8067 107.08 19.46C107.08 18.78 106.687 18.44 105.9 18.44H103.88V20.44H105.9Z" fill="#0F172A"/>
<path d="M122.12 9.84V13.36H116.56V15.32H120.56V18.66H116.56V24H112.12V9.84H122.12ZM128.16 24.14C126.467 24.14 125.07 23.7433 123.97 22.95C122.87 22.1567 122.273 20.9933 122.18 19.46H126.9C126.967 20.2733 127.327 20.68 127.98 20.68C128.22 20.68 128.423 20.6233 128.59 20.51C128.757 20.3967 128.84 20.22 128.84 19.98C128.84 19.6467 128.66 19.3767 128.3 19.17C127.94 18.9633 127.38 18.7267 126.62 18.46C125.713 18.14 124.963 17.8267 124.37 17.52C123.777 17.2133 123.267 16.7667 122.84 16.18C122.413 15.5933 122.207 14.84 122.22 13.92C122.22 13 122.457 12.2167 122.93 11.57C123.403 10.9233 124.05 10.4333 124.87 10.1C125.69 9.76667 126.613 9.6 127.64 9.6C129.373 9.6 130.75 10 131.77 10.8C132.79 11.6 133.327 12.7267 133.38 14.18H128.6C128.587 13.78 128.487 13.4933 128.3 13.32C128.113 13.1467 127.887 13.06 127.62 13.06C127.433 13.06 127.28 13.1233 127.16 13.25C127.04 13.3767 126.98 13.5533 126.98 13.78C126.98 14.1 127.157 14.3633 127.51 14.57C127.863 14.7767 128.427 15.0267 129.2 15.32C130.093 15.6533 130.83 15.9733 131.41 16.28C131.99 16.5867 132.493 17.0133 132.92 17.56C133.347 18.1067 133.56 18.7933 133.56 19.62C133.56 20.4867 133.347 21.2633 132.92 21.95C132.493 22.6367 131.873 23.1733 131.06 23.56C130.247 23.9467 129.28 24.14 128.16 24.14Z" fill="#FF2424"/>
</svg>
